<?xml version="1.0" encoding="UTF-8"?>
<!DOCTYPE svg PUBLIC "-//W3C//DTD SVG 1.1//EN" "http://www.w3.org/Graphics/SVG/1.1/DTD/svg11.dtd">
<svg xmlns="http://www.w3.org/2000/svg" version="1.1" width="148px" height="148px" style="shape-rendering:geometricPrecision; text-rendering:geometricPrecision; image-rendering:optimizeQuality; fill-rule:evenodd; clip-rule:evenodd" xmlns:xlink="http://www.w3.org/1999/xlink">
<g><path style="opacity:1" fill="#fbfbfb" d="M -0.5,-0.5 C 48.8333,-0.5 98.1667,-0.5 147.5,-0.5C 147.5,48.8333 147.5,98.1667 147.5,147.5C 98.1667,147.5 48.8333,147.5 -0.5,147.5C -0.5,98.1667 -0.5,48.8333 -0.5,-0.5 Z"/></g>
<g><path style="opacity:1" fill="#040404" d="M 60.5,3.5 C 97.0749,-0.357767 123.575,13.9756 140,46.5C 152.113,84.7572 141.28,114.591 107.5,136C 84.0008,146.265 60.6675,145.931 37.5,135C 5.32318,113.141 -4.84349,83.6407 7,46.5C 17.6406,23.0082 35.4739,8.67487 60.5,3.5 Z"/></g>
<g><path style="opacity:1" fill="#f6f6f6" d="M 65.5,16.5 C 93.7403,13.2673 112.74,24.7673 122.5,51C 119.852,54.1133 116.519,55.1133 112.5,54C 105.192,34.1632 90.8582,25.1632 69.5,27C 51.0423,29.1231 39.8757,39.2897 36,57.5C 32.4653,75.2441 35.1319,91.9108 44,107.5C 55.9022,119.214 70.0689,123.047 86.5,119C 98.9277,115.582 105.928,107.582 107.5,95C 107.432,88.3666 104.598,83.2 99,79.5C 95.5076,99.1678 84.0076,106.668 64.5,102C 54.3981,97.2955 50.5648,89.4622 53,78.5C 56.4967,71.0068 62.33,66.5068 70.5,65C 76.5283,64.3594 82.5283,64.5261 88.5,65.5C 86.0333,54.9167 79.3666,51.0833 68.5,54C 66.0232,55.6427 63.6898,57.476 61.5,59.5C 58.5505,57.8847 55.8838,55.8847 53.5,53.5C 64.2285,41.2829 76.5619,39.4495 90.5,48C 96.7097,53.7892 99.7097,60.9558 99.5,69.5C 108.48,72.3152 114.314,78.3152 117,87.5C 118.815,110.677 108.315,124.844 85.5,130C 51.6959,134.201 31.5293,119.701 25,86.5C 21.5961,66.459 25.5961,48.1256 37,31.5C 44.9889,23.4243 54.4889,18.4243 65.5,16.5 Z"/></g>
<g><path style="opacity:1" fill="#080808" d="M 69.5,75.5 C 75.8778,75.2946 82.2111,75.6279 88.5,76.5C 87.8813,90.2833 80.8813,95.4499 67.5,92C 63.1392,89.7742 61.6392,86.2742 63,81.5C 64.914,79.1435 67.0807,77.1435 69.5,75.5 Z"/></g>
</svg>
