<?xml version="1.0" encoding="UTF-8"?>
<!DOCTYPE svg PUBLIC "-//W3C//DTD SVG 1.1//EN" "http://www.w3.org/Graphics/SVG/1.1/DTD/svg11.dtd">
<svg xmlns="http://www.w3.org/2000/svg" version="1.1" width="512px" height="512px" style="shape-rendering:geometricPrecision; text-rendering:geometricPrecision; image-rendering:optimizeQuality; fill-rule:evenodd; clip-rule:evenodd" xmlns:xlink="http://www.w3.org/1999/xlink">
<g><path style="opacity:0.997" fill="#0095ff" d="M 255.5,0.5 C 255.5,58.5 255.5,116.5 255.5,174.5C 247.714,167.221 239.714,160.054 231.5,153C 225.56,150.407 220.227,151.241 215.5,155.5C 174.81,205.689 134.31,256.022 94,306.5C 88.0151,317.214 90.5151,325.381 101.5,331C 103.833,331.667 106.167,331.667 108.5,331C 146.172,312.497 183.838,293.997 221.5,275.5C 222.167,275.667 222.833,275.833 223.5,276C 233.728,286.396 244.062,296.563 254.5,306.5C 254.833,307.167 255.167,307.833 255.5,308.5C 255.5,366.167 255.5,423.833 255.5,481.5C 232.468,481.954 209.801,479.288 187.5,473.5C 162.496,485.668 137.829,498.335 113.5,511.5C 108.167,511.5 102.833,511.5 97.5,511.5C 95.1673,508.997 93.0007,506.331 91,503.5C 90.8332,477.16 90.3332,450.827 89.5,424.5C 37.6424,382.797 7.64235,328.797 -0.5,262.5C -0.5,248.5 -0.5,234.5 -0.5,220.5C 10.6708,138.839 51.6708,77.006 122.5,35C 163.755,11.7693 208.088,0.26931 255.5,0.5 Z"/></g>
<g><path style="opacity:1" fill="#006eff" d="M 255.5,0.5 C 340.174,1.63666 409.34,34.6367 463,99.5C 490.267,135.37 506.434,175.704 511.5,220.5C 511.5,234.5 511.5,248.5 511.5,262.5C 500.623,342.191 460.957,403.025 392.5,445C 350.141,469.507 304.475,481.673 255.5,481.5C 255.5,423.833 255.5,366.167 255.5,308.5C 262.298,314.797 268.965,321.297 275.5,328C 282.137,332.598 288.804,332.598 295.5,328C 337.601,276.289 379.101,224.122 420,171.5C 421.521,157.021 415.021,150.521 400.5,152C 363.395,170.636 326.228,189.136 289,207.5C 277.673,197.007 266.507,186.34 255.5,175.5C 255.5,175.167 255.5,174.833 255.5,174.5C 255.5,116.5 255.5,58.5 255.5,0.5 Z"/></g>
<g><path style="opacity:1" fill="#ecf4ff" d="M 255.5,174.5 C 255.5,174.833 255.5,175.167 255.5,175.5C 255.832,219.337 255.499,263.003 254.5,306.5C 244.062,296.563 233.728,286.396 223.5,276C 222.833,275.833 222.167,275.667 221.5,275.5C 183.838,293.997 146.172,312.497 108.5,331C 106.167,331.667 103.833,331.667 101.5,331C 90.5151,325.381 88.0151,317.214 94,306.5C 134.31,256.022 174.81,205.689 215.5,155.5C 220.227,151.241 225.56,150.407 231.5,153C 239.714,160.054 247.714,167.221 255.5,174.5 Z"/></g>
<g><path style="opacity:1" fill="#d6e8ff" d="M 255.5,308.5 C 255.167,307.833 254.833,307.167 254.5,306.5C 255.499,263.003 255.832,219.337 255.5,175.5C 266.507,186.34 277.673,197.007 289,207.5C 326.228,189.136 363.395,170.636 400.5,152C 415.021,150.521 421.521,157.021 420,171.5C 379.101,224.122 337.601,276.289 295.5,328C 288.804,332.598 282.137,332.598 275.5,328C 268.965,321.297 262.298,314.797 255.5,308.5 Z"/></g>
</svg>
