<?xml version="1.0" encoding="UTF-8"?>
<!DOCTYPE svg PUBLIC "-//W3C//DTD SVG 1.1//EN" "http://www.w3.org/Graphics/SVG/1.1/DTD/svg11.dtd">
<svg xmlns="http://www.w3.org/2000/svg" version="1.1" width="320px" height="320px" style="shape-rendering:geometricPrecision; text-rendering:geometricPrecision; image-rendering:optimizeQuality; fill-rule:evenodd; clip-rule:evenodd" xmlns:xlink="http://www.w3.org/1999/xlink">
<g><path style="opacity:0.979" fill="#b8b515" d="M 151.5,4.5 C 153.49,28.8107 154.157,53.4774 153.5,78.5C 129.491,78.8331 105.491,78.4997 81.5,77.5C 100.36,49.6239 123.693,25.2905 151.5,4.5 Z"/></g>
<g><path style="opacity:0.992" fill="#b8b516" d="M 167.5,4.5 C 171.397,6.12124 175.064,8.28791 178.5,11C 202.655,29.978 222.655,52.478 238.5,78.5C 215.012,78.5245 191.345,78.5245 167.5,78.5C 167.5,53.8333 167.5,29.1667 167.5,4.5 Z"/></g>
<g><path style="opacity:1" fill="#1ab89d" d="M 127.5,5.5 C 129.167,5.5 130.833,5.5 132.5,5.5C 132.719,6.67504 132.386,7.67504 131.5,8.5C 106.426,27.7404 85.7593,50.9071 69.5,78C 46.5024,78.5 23.5024,78.6666 0.5,78.5C 2.00388,74.8112 4.17055,71.4778 7,68.5C 40.243,33.1378 80.4097,12.1378 127.5,5.5 Z"/></g>
<g><path style="opacity:1" fill="#1ab99d" d="M 319.5,77.5 C 319.5,78.1667 319.5,78.8333 319.5,79.5C 296.535,78.8533 273.535,78.1866 250.5,77.5C 234.46,50.3104 214.127,27.1438 189.5,8C 189.613,6.72024 190.28,5.88691 191.5,5.5C 197.701,7.31155 204.035,8.47821 210.5,9C 254.004,19.4703 290.337,42.3037 319.5,77.5 Z"/></g>
<g><path style="opacity:1" fill="#b93909" d="M 164.5,194.5 C 164.987,195.473 165.487,196.473 166,197.5C 169.603,196.865 173.103,196.198 176.5,195.5C 184.72,194.726 191.053,190.893 195.5,184C 196.167,183.333 196.833,183.333 197.5,184C 201.023,188.022 204.357,192.189 207.5,196.5C 195.174,213.507 178.84,219.007 158.5,213C 143.629,206.298 133.962,195.132 129.5,179.5C 129.344,174.529 128.344,169.862 126.5,165.5C 124.669,145.488 130.669,128.321 144.5,114C 161.493,101.223 179.16,100.223 197.5,111C 201.753,113.846 205.086,117.513 207.5,122C 204.385,126.949 200.718,131.449 196.5,135.5C 182.348,119.112 167.515,118.445 152,133.5C 144.518,145.592 142.518,158.592 146,172.5C 148.663,182.852 154.83,190.185 164.5,194.5 Z"/></g>
<g><path style="opacity:0.983" fill="#b93706" d="M 108.5,212.5 C 103.167,212.5 97.8333,212.5 92.5,212.5C 92.8286,199.989 92.4952,187.655 91.5,175.5C 90.6943,166.577 90.1943,157.577 90,148.5C 81.6667,165.833 73.3333,183.167 65,200.5C 61.9433,201.451 58.7766,201.784 55.5,201.5C 52.4651,193.758 49.1318,186.091 45.5,178.5C 45.8039,177.85 46.1373,177.183 46.5,176.5C 43.1667,169.833 39.8333,163.167 36.5,156.5C 36.0431,155.702 35.3764,155.369 34.5,155.5C 33.3263,154.486 32.6596,153.153 32.5,151.5C 33.1128,148.031 31.7794,146.031 28.5,145.5C 28.5,167.833 28.5,190.167 28.5,212.5C 23.5,212.5 18.5,212.5 13.5,212.5C 13.5,176.833 13.5,141.167 13.5,105.5C 18.0152,104.188 22.6819,104.188 27.5,105.5C 38.5045,128.176 49.5045,150.842 60.5,173.5C 71.5899,150.986 82.4233,128.319 93,105.5C 98.0717,104.529 103.238,104.195 108.5,104.5C 108.5,140.5 108.5,176.5 108.5,212.5 Z"/></g>
<g><path style="opacity:0.381" fill="#c76038" d="M 13.5,105.5 C 13.5,141.167 13.5,176.833 13.5,212.5C 18.5,212.5 23.5,212.5 28.5,212.5C 28.5,190.167 28.5,167.833 28.5,145.5C 31.7794,146.031 33.1128,148.031 32.5,151.5C 31.4415,150.4 30.6082,149.066 30,147.5C 29.5,169.497 29.3334,191.497 29.5,213.5C 23.8333,213.5 18.1667,213.5 12.5,213.5C 12.1682,177.329 12.5016,141.329 13.5,105.5 Z"/></g>
<g><path style="opacity:0.993" fill="#b93909" d="M 276.5,182.5 C 267.014,181.506 257.348,181.173 247.5,181.5C 247.5,192.167 247.5,202.833 247.5,213.5C 240.833,213.5 234.167,213.5 227.5,213.5C 227.5,177.5 227.5,141.5 227.5,105.5C 247.54,105.075 267.54,105.575 287.5,107C 311.418,113.991 321.252,129.825 317,154.5C 309.703,172.607 296.203,181.94 276.5,182.5 Z M 274.5,123.5 C 288.424,123.444 296.09,130.277 297.5,144C 297.058,153.443 292.391,159.776 283.5,163C 272.221,164.383 260.888,164.883 249.5,164.5C 248.504,151.01 248.171,137.344 248.5,123.5C 257.167,123.5 265.833,123.5 274.5,123.5 Z"/></g>
<g><path style="opacity:0.686" fill="#ca6943" d="M 274.5,123.5 C 265.833,123.5 257.167,123.5 248.5,123.5C 248.171,137.344 248.504,151.01 249.5,164.5C 249.44,165.043 249.107,165.376 248.5,165.5C 247.501,151.182 247.167,136.849 247.5,122.5C 256.682,122.173 265.682,122.507 274.5,123.5 Z"/></g>
<g><path style="opacity:1" fill="#c4532e" d="M 34.5,155.5 C 35.3764,155.369 36.0431,155.702 36.5,156.5C 39.8333,163.167 43.1667,169.833 46.5,176.5C 46.1373,177.183 45.8039,177.85 45.5,178.5C 41.0515,171.267 37.3848,163.601 34.5,155.5 Z"/></g>
<g><path style="opacity:0.925" fill="#d07350" d="M 126.5,165.5 C 128.344,169.862 129.344,174.529 129.5,179.5C 127.87,175.089 126.87,170.422 126.5,165.5 Z"/></g>
<g><path style="opacity:0.792" fill="#c35327" d="M 91.5,175.5 C 92.4952,187.655 92.8286,199.989 92.5,212.5C 97.8333,212.5 103.167,212.5 108.5,212.5C 103.025,213.489 97.358,213.822 91.5,213.5C 91.5,200.833 91.5,188.167 91.5,175.5 Z"/></g>
<g><path style="opacity:0.667" fill="#d27e5d" d="M 276.5,182.5 C 267.167,182.5 257.833,182.5 248.5,182.5C 248.828,193.014 248.494,203.347 247.5,213.5C 247.5,202.833 247.5,192.167 247.5,181.5C 257.348,181.173 267.014,181.506 276.5,182.5 Z"/></g>
<g><path style="opacity:1" fill="#cb6740" d="M 164.5,194.5 C 168.452,195.272 172.452,195.605 176.5,195.5C 173.103,196.198 169.603,196.865 166,197.5C 165.487,196.473 164.987,195.473 164.5,194.5 Z"/></g>
<g><path style="opacity:1" fill="#1ab99d" d="M -0.5,239.5 C 22.8357,239.333 46.169,239.5 69.5,240C 77.2568,252.415 85.7568,264.248 95,275.5C 107.299,288.297 120.132,300.63 133.5,312.5C 132.833,312.833 132.167,313.167 131.5,313.5C 77.6776,306.605 33.6776,282.605 -0.5,241.5C -0.5,240.833 -0.5,240.167 -0.5,239.5 Z"/></g>
<g><path style="opacity:0.982" fill="#b8b516" d="M 81.5,240.5 C 104.327,239.502 127.327,239.169 150.5,239.5C 150.172,263.408 150.506,287.241 151.5,311C 151,311.167 150.5,311.333 150,311.5C 122.977,291.899 100.143,268.232 81.5,240.5 Z"/></g>
<g><path style="opacity:0.995" fill="#b8b517" d="M 164.5,239.5 C 187.843,239.167 211.176,239.5 234.5,240.5C 215.904,268.597 192.737,292.264 165,311.5C 164.5,311.333 164,311.167 163.5,311C 164.494,287.241 164.828,263.408 164.5,239.5 Z"/></g>
<g><path style="opacity:1" fill="#1ab99d" d="M 247.5,239.5 C 271.167,239.5 294.833,239.5 318.5,239.5C 318.649,240.552 318.483,241.552 318,242.5C 282.315,286.088 236.815,309.421 181.5,312.5C 196.834,299.665 211.334,285.998 225,271.5C 233.912,261.766 241.412,251.1 247.5,239.5 Z"/></g>
</svg>
