<?xml version="1.0" encoding="UTF-8"?>
<svg version="1.1" xmlns="http://www.w3.org/2000/svg" width="512" height="512">
<path d="M0 0 C1.01790619 0.00215515 2.03581238 0.0043103 3.08456421 0.00653076 C17.69363523 0.05620146 32.02575853 0.30709809 46.375 3.3125 C47.34985352 3.51117676 48.32470703 3.70985352 49.32910156 3.91455078 C97.7109774 14.03517194 141.69928269 35.9516877 177.375 70.3125 C178.3640332 71.26068604 178.3640332 71.26068604 179.37304688 72.22802734 C188.86130305 81.37247479 197.6012044 90.66984009 205.375 101.3125 C206.23306152 102.46355017 207.09113451 103.61459177 207.94921875 104.765625 C213.98736829 112.95680614 219.34595521 121.47054105 224.375 130.3125 C224.73948242 130.94430176 225.10396484 131.57610352 225.47949219 132.22705078 C247.08534998 169.97532572 256.85198095 212.74189997 256.6875 255.9375 C256.68534485 256.95540619 256.6831897 257.97331238 256.68096924 259.02206421 C256.63129854 273.63113523 256.38040191 287.96325853 253.375 302.3125 C253.07698486 303.77478027 253.07698486 303.77478027 252.77294922 305.26660156 C242.65232806 353.6484774 220.7358123 397.63678269 186.375 433.3125 C185.74287598 433.97185547 185.11075195 434.63121094 184.45947266 435.31054688 C175.31502521 444.79880305 166.01765991 453.5387044 155.375 461.3125 C154.22394983 462.17056152 153.07290823 463.02863451 151.921875 463.88671875 C143.73224019 469.92427396 135.22961724 475.30707302 126.375 480.3125 C125.66778809 480.7146875 124.96057617 481.116875 124.23193359 481.53125 C101.09654164 494.5566741 75.92537591 503.30551461 49.9375 508.625 C49.21860596 508.77235596 48.49971191 508.91971191 47.7590332 509.0715332 C33.08339502 511.86090125 18.55831162 512.66142619 3.64770508 512.62817383 C0.70811513 512.6250221 -2.2304558 512.64854926 -5.16992188 512.67382812 C-18.54306192 512.71848737 -31.43916711 511.51301542 -44.625 509.3125 C-46.33055054 509.03031616 -46.33055054 509.03031616 -48.07055664 508.74243164 C-91.33802759 500.97044532 -132.38793216 480.98345309 -165.625 452.3125 C-166.37007813 451.67828125 -167.11515625 451.0440625 -167.8828125 450.390625 C-181.38779833 438.57948485 -194.05918743 425.82889772 -204.625 411.3125 C-205.48149066 410.16255169 -206.33826433 409.01281411 -207.1953125 407.86328125 C-213.23534209 399.67315742 -218.61867614 391.16870382 -223.625 382.3125 C-224.0271875 381.60528809 -224.429375 380.89807617 -224.84375 380.16943359 C-237.8691741 357.03404164 -246.61801461 331.86287591 -251.9375 305.875 C-252.08485596 305.15610596 -252.23221191 304.43721191 -252.3840332 303.6965332 C-255.35789088 288.05024391 -255.99800362 272.57681954 -255.9375 256.6875 C-255.93534485 255.66959381 -255.9331897 254.65168762 -255.93096924 253.60293579 C-255.88129854 238.99386477 -255.63040191 224.66174147 -252.625 210.3125 C-252.42632324 209.33764648 -252.22764648 208.36279297 -252.02294922 207.35839844 C-241.90232806 158.9765226 -219.9858123 114.98821731 -185.625 79.3125 C-184.99287598 78.65314453 -184.36075195 77.99378906 -183.70947266 77.31445312 C-174.56502521 67.82619695 -165.26765991 59.0862956 -154.625 51.3125 C-153.47394983 50.45443848 -152.32290823 49.59636549 -151.171875 48.73828125 C-142.98224019 42.70072604 -134.47961724 37.31792698 -125.625 32.3125 C-124.91778809 31.9103125 -124.21057617 31.508125 -123.48193359 31.09375 C-100.34654164 18.0683259 -75.17537591 9.31948539 -49.1875 4 C-48.46860596 3.85264404 -47.74971191 3.70528809 -47.0090332 3.5534668 C-31.36274391 0.57960912 -15.88931954 -0.06050362 0 0 Z " fill="#BD081C" transform="translate(255.625,-0.3125)"/>
<path d="M0 0 C0.87914062 0.73992187 1.75828125 1.47984375 2.6640625 2.2421875 C27.5999755 23.9356598 42.57186341 52.66548854 48 85 C48.18433594 85.8971875 48.36867188 86.794375 48.55859375 87.71875 C52.86105365 119.70163775 43.57234372 153.50959474 25.125 179.75 C1.50269476 210.68060326 -29.75070868 232.63802276 -69.04541016 238.29443359 C-84.02121367 240.12251217 -107.53996143 242.02425376 -121 234 C-122.00390625 231.79296875 -122.00390625 231.79296875 -122 229 C-120.77734375 225.86328125 -120.77734375 225.86328125 -118.9375 222.3125 C-112.6434957 209.58409882 -108.81196712 196.18185405 -105.64794922 182.37231445 C-105.45990723 181.56882568 -105.27186523 180.76533691 -105.078125 179.9375 C-104.83690918 178.86822266 -104.83690918 178.86822266 -104.59082031 177.77734375 C-104 176 -104 176 -102 174 C-98.1503572 174.3181523 -95.85320475 175.58163544 -92.8125 177.875 C-88.1184097 181.14830377 -83.52341396 182.67399907 -78 184 C-77.3709375 184.18175781 -76.741875 184.36351562 -76.09375 184.55078125 C-61.41103142 187.70099139 -45.68551032 182.36511083 -33.05859375 175.06640625 C-14.03530903 162.21414876 -2.40151949 142.16547345 2.68359375 120.0234375 C6.96782372 95.73628551 4.960741 71.22303715 -9.32421875 50.5546875 C-23.39963915 31.0798619 -44.20788722 19.63987838 -67.6953125 15.46875 C-93.61538036 12.1741434 -120.99334947 16.43616303 -142.578125 31.83984375 C-145.13058961 33.81682937 -147.57628304 35.86744384 -150 38 C-150.7734375 38.67804688 -151.546875 39.35609375 -152.34375 40.0546875 C-166.27528325 53.07971687 -175.53726305 73.04949328 -176.3515625 92.09765625 C-176.39509856 94.29402617 -176.42369106 96.49074204 -176.4375 98.6875 C-176.4526062 100.23655029 -176.4526062 100.23655029 -176.46801758 101.81689453 C-176.28501631 118.13645453 -170.42767373 136.17726184 -158.94921875 148.13671875 C-152.7817086 153.89667693 -152.7817086 153.89667693 -145 156 C-141.94754356 149.45902191 -140.07091692 141.16721232 -141 134 C-142.09269564 132.01051033 -143.33928174 130.18263564 -144.625 128.3125 C-152.1016863 115.73807305 -152.65278854 99.21785878 -149.94140625 85.16796875 C-146.56188993 73.79540554 -140.55527339 64.18992364 -132 56 C-131.39929688 55.36835938 -130.79859375 54.73671875 -130.1796875 54.0859375 C-119.26285384 43.35813992 -102.77388172 38.77758342 -87.875 38.6875 C-71.03262328 38.87687684 -55.95066183 43.98473119 -43 55 C-29.49353443 69.13104201 -26.34417056 85.40214245 -26.75 104.24609375 C-27.49116607 122.68259968 -34.12587913 141.18896408 -47.640625 154.0234375 C-55.88158096 160.92728471 -64.66964618 163.54852585 -75.3203125 163.3125 C-81.07391257 162.64152623 -84.72981018 160.24196338 -88.8125 156.25 C-92.85410103 150.24533562 -94.51044713 145.3044265 -94 138 C-93.09802385 134.08897529 -91.93290483 130.27159853 -90.75 126.4375 C-90.10662158 124.29301352 -89.46339172 122.14848247 -88.8203125 120.00390625 C-88.35093262 118.45727295 -88.35093262 118.45727295 -87.87207031 116.87939453 C-86.76330178 113.21847178 -85.68622772 109.54999228 -84.625 105.875 C-84.32851563 104.86179687 -84.03203125 103.84859375 -83.7265625 102.8046875 C-81.5292436 94.32256402 -79.97416551 84.61645302 -84.6171875 76.7265625 C-87.79882952 72.75400382 -91.43762493 70.45960061 -96.4609375 69.55859375 C-103.47526243 69.22406441 -108.7139092 71.02303021 -113.91015625 75.73046875 C-122.06042393 84.39986176 -124.18065757 93.56677759 -124.125 105.125 C-124.12886719 105.93582031 -124.13273437 106.74664062 -124.13671875 107.58203125 C-124.13542969 108.36191406 -124.13414062 109.14179688 -124.1328125 109.9453125 C-124.13112061 111.00516357 -124.13112061 111.00516357 -124.12939453 112.08642578 C-124.06552723 114.22259189 -124.06552723 114.22259189 -123 117 C-121.33685363 136.26873864 -127.16158721 154.84456524 -131.82739258 173.34545898 C-132.55428823 176.22963909 -133.27825079 179.11452798 -134 182 C-134.21076172 182.83869629 -134.42152344 183.67739258 -134.63867188 184.54150391 C-137.22679767 195.03614185 -138.49985677 205.05037201 -138.58520508 215.88134766 C-138.60683716 217.20851807 -138.60683716 217.20851807 -138.62890625 218.5625 C-138.62963135 219.34753906 -138.63035645 220.13257813 -138.63110352 220.94140625 C-139 223 -139 223 -140.27319336 224.83984375 C-142 226 -142 226 -143.96630859 225.79907227 C-154.22141124 221.76966639 -163.78988995 215.2433906 -172 208 C-173.22589844 206.95392578 -173.22589844 206.95392578 -174.4765625 205.88671875 C-201.63343309 182.2190436 -218.64830285 148.35925954 -221.18457031 112.38183594 C-223.08976243 74.89478248 -209.74727396 39.91211183 -185 12 C-168.32314193 -6.40951865 -145.91637414 -19.58850319 -122 -26 C-120.94554687 -26.28746094 -119.89109375 -26.57492188 -118.8046875 -26.87109375 C-77.92720355 -37.57710145 -32.09699585 -27.3483992 0 0 Z " fill="#FEFDFD" transform="translate(342,152)"/>
</svg>
