<?xml version="1.0" encoding="UTF-8"?>
<!DOCTYPE svg PUBLIC "-//W3C//DTD SVG 1.1//EN" "http://www.w3.org/Graphics/SVG/1.1/DTD/svg11.dtd">
<svg xmlns="http://www.w3.org/2000/svg" version="1.1" width="3420px" height="3420px" style="shape-rendering:geometricPrecision; text-rendering:geometricPrecision; image-rendering:optimizeQuality; fill-rule:evenodd; clip-rule:evenodd" xmlns:xlink="http://www.w3.org/1999/xlink">
<g><path style="opacity:0.999" fill="#000000" d="M 1693.5,-0.5 C 1703.83,-0.5 1714.17,-0.5 1724.5,-0.5C 2113.76,6.60721 2461.42,128.774 2767.5,366C 3035.1,579.714 3223.93,849.214 3334,1174.5C 3387.81,1340.04 3416.31,1509.71 3419.5,1683.5C 3419.5,1701.17 3419.5,1718.83 3419.5,1736.5C 3410.01,2122.21 3287.51,2466.54 3052,2769.5C 2841.81,3032.42 2577.31,3219.25 2258.5,3330C 2097.74,3383.99 1932.74,3413.82 1763.5,3419.5C 1727.5,3419.5 1691.5,3419.5 1655.5,3419.5C 1287.24,3405.16 957.244,3286.99 665.5,3065C 382.562,2843.83 186.062,2561.66 76,2218.5C 29.8292,2068.48 4.32915,1915.14 -0.5,1758.5C -0.5,1725.83 -0.5,1693.17 -0.5,1660.5C 12.9831,1293.16 129.816,963.494 350,671.5C 555.948,405.711 817.114,214.878 1133.5,99C 1314.78,34.8435 1501.45,1.67684 1693.5,-0.5 Z"/></g>
<g><path style="opacity:1" fill="#01f6ee" d="M 2041.5,784.5 C 1954,786.166 1866.34,787.166 1778.5,787.5C 1778.67,1221.5 1778.5,1655.5 1778,2089.5C 1766.2,2192.99 1714.37,2268.82 1622.5,2317C 1545.41,2352.18 1467.74,2353.51 1389.5,2321C 1302.93,2279.56 1249.26,2211.9 1228.5,2118C 1228.57,2117.24 1228.9,2116.74 1229.5,2116.5C 1240.93,2128.93 1253.6,2139.93 1267.5,2149.5C 1308.97,2180.39 1355.63,2198.22 1407.5,2203C 1509.76,2208.11 1592.26,2170.61 1655,2090.5C 1689.51,2042.13 1707.35,1988.13 1708.5,1928.5C 1707.51,1501.17 1707.18,1073.84 1707.5,646.5C 1814.83,646.5 1922.17,646.5 2029.5,646.5C 2030.64,674.164 2031.81,701.831 2033,729.5C 2034.12,748.133 2036.95,766.466 2041.5,784.5 Z"/></g>
<g><path style="opacity:1" fill="#7ff9f5" d="M 2041.5,784.5 C 2042.34,784.842 2042.67,785.508 2042.5,786.5C 2042.5,786.833 2042.5,787.167 2042.5,787.5C 1954.5,787.5 1866.5,787.5 1778.5,787.5C 1866.34,787.166 1954,786.166 2041.5,784.5 Z"/></g>
<g><path style="opacity:1" fill="#7f7f7f" d="M 2042.5,787.5 C 2042.5,787.167 2042.5,786.833 2042.5,786.5C 2061.83,786.5 2081.17,786.5 2100.5,786.5C 2100.5,788.5 2100.5,790.5 2100.5,792.5C 2099.55,791.081 2099.22,789.415 2099.5,787.5C 2080.5,787.5 2061.5,787.5 2042.5,787.5 Z"/></g>
<g><path style="opacity:1" fill="#fefefe" d="M 1778.5,787.5 C 1866.5,787.5 1954.5,787.5 2042.5,787.5C 2061.5,787.5 2080.5,787.5 2099.5,787.5C 2099.22,789.415 2099.55,791.081 2100.5,792.5C 2100.97,816.177 2101.81,839.844 2103,863.5C 2103.45,875.292 2104.62,886.959 2106.5,898.5C 2113.36,941.94 2130.19,980.94 2157,1015.5C 2236.94,1116.42 2338.78,1185.42 2462.5,1222.5C 2475.16,1226.75 2488.16,1230.25 2501.5,1233C 2511.71,1235.54 2522.04,1237.38 2532.5,1238.5C 2532.5,1276.17 2532.5,1313.83 2532.5,1351.5C 2532.5,1421.17 2532.5,1490.83 2532.5,1560.5C 2366.57,1543.78 2218.57,1484.11 2088.5,1381.5C 2088.44,1380.96 2088.11,1380.62 2087.5,1380.5C 2087.17,1488.5 2086.83,1596.5 2086.5,1704.5C 2086.16,1815.02 2086.16,1925.36 2086.5,2035.5C 2092.28,2217.01 2030.28,2370.51 1900.5,2496C 1770.44,2612.69 1617.77,2664.02 1442.5,2650C 1284.92,2631.31 1154.76,2562.14 1052,2442.5C 1019.81,2403.12 992.64,2360.45 970.5,2314.5C 961.911,2294.73 953.911,2274.73 946.5,2254.5C 894.609,2090.13 909.442,1932.13 991,1780.5C 1078.53,1630.59 1207.03,1535.42 1376.5,1495C 1425.29,1484.77 1474.63,1480.27 1524.5,1481.5C 1547.77,1482.99 1571.1,1485.32 1594.5,1488.5C 1594.5,1527.17 1594.5,1565.83 1594.5,1604.5C 1594.83,1671.67 1594.5,1738.67 1593.5,1805.5C 1492.47,1773.66 1401.14,1791.16 1319.5,1858C 1243.24,1927.94 1213.24,2014.11 1229.5,2116.5C 1228.9,2116.74 1228.57,2117.24 1228.5,2118C 1249.26,2211.9 1302.93,2279.56 1389.5,2321C 1467.74,2353.51 1545.41,2352.18 1622.5,2317C 1714.37,2268.82 1766.2,2192.99 1778,2089.5C 1778.5,1655.5 1778.67,1221.5 1778.5,787.5 Z"/></g>
<g><path style="opacity:1" fill="#03f6ee" d="M 2106.5,898.5 C 2109.14,901.806 2112.14,904.806 2115.5,907.5C 2123.44,917.113 2132.11,926.113 2141.5,934.5C 2231.12,1022.15 2338.12,1076.81 2462.5,1098.5C 2462.5,1139.83 2462.5,1181.17 2462.5,1222.5C 2338.78,1185.42 2236.94,1116.42 2157,1015.5C 2130.19,980.94 2113.36,941.94 2106.5,898.5 Z"/></g>
<g><path style="opacity:1" fill="#f6054d" d="M 2115.5,907.5 C 2123.83,907.5 2132.17,907.5 2140.5,907.5C 2140.79,916.502 2141.12,925.502 2141.5,934.5C 2132.11,926.113 2123.44,917.113 2115.5,907.5 Z"/></g>
<g><path style="opacity:1" fill="#02f6ee" d="M 1524.5,1481.5 C 1474.63,1480.27 1425.29,1484.77 1376.5,1495C 1207.03,1535.42 1078.53,1630.59 991,1780.5C 909.442,1932.13 894.609,2090.13 946.5,2254.5C 862.47,2128.24 830.97,1989.58 852,1838.5C 882.426,1662.88 971.926,1526.71 1120.5,1430C 1245.04,1353.59 1379.71,1326.42 1524.5,1348.5C 1524.5,1392.83 1524.5,1437.17 1524.5,1481.5 Z"/></g>
<g><path style="opacity:1" fill="#fe014f" d="M 2532.5,1351.5 C 2545.83,1354.17 2559.16,1356.83 2572.5,1359.5C 2572.5,1466.5 2572.5,1573.5 2572.5,1680.5C 2570.83,1680.5 2569.17,1680.5 2567.5,1680.5C 2403.14,1662.97 2256.47,1603.3 2127.5,1501.5C 2126.83,1718.02 2126.16,1934.69 2125.5,2151.5C 2125.54,2152.42 2125.88,2153.08 2126.5,2153.5C 2133.3,2322.12 2079.8,2468.12 1966,2591.5C 1841.91,2717.34 1691.08,2777.84 1513.5,2773C 1354.07,2762.91 1219.91,2700.08 1111,2584.5C 1040.25,2507.34 993.415,2417.34 970.5,2314.5C 992.64,2360.45 1019.81,2403.12 1052,2442.5C 1154.76,2562.14 1284.92,2631.31 1442.5,2650C 1617.77,2664.02 1770.44,2612.69 1900.5,2496C 2030.28,2370.51 2092.28,2217.01 2086.5,2035.5C 2087.16,1817.35 2087.83,1599.35 2088.5,1381.5C 2218.57,1484.11 2366.57,1543.78 2532.5,1560.5C 2532.5,1490.83 2532.5,1421.17 2532.5,1351.5 Z"/></g>
<g><path style="opacity:1" fill="#400014" d="M 2572.5,1359.5 C 2573.5,1466.67 2573.83,1574 2573.5,1681.5C 2571.26,1681.79 2569.26,1681.46 2567.5,1680.5C 2569.17,1680.5 2570.83,1680.5 2572.5,1680.5C 2572.5,1573.5 2572.5,1466.5 2572.5,1359.5 Z"/></g>
<g><path style="opacity:1" fill="#ffbfd3" d="M 2088.5,1381.5 C 2087.83,1599.35 2087.16,1817.35 2086.5,2035.5C 2086.16,1925.36 2086.16,1815.02 2086.5,1704.5C 2086.83,1596.5 2087.17,1488.5 2087.5,1380.5C 2088.11,1380.62 2088.44,1380.96 2088.5,1381.5 Z"/></g>
<g><path style="opacity:1" fill="#bf003a" d="M 2127.5,1501.5 C 2127.83,1718.86 2127.5,1936.19 2126.5,2153.5C 2125.88,2153.08 2125.54,2152.42 2125.5,2151.5C 2126.16,1934.69 2126.83,1718.02 2127.5,1501.5 Z"/></g>
<g><path style="opacity:1" fill="#ff407a" d="M 1594.5,1604.5 C 1594.83,1604.5 1595.17,1604.5 1595.5,1604.5C 1595.83,1671.84 1595.5,1739.17 1594.5,1806.5C 1593.89,1806.38 1593.56,1806.04 1593.5,1805.5C 1594.5,1738.67 1594.83,1671.67 1594.5,1604.5 Z"/></g>
<g><path style="opacity:1" fill="#fe014f" d="M 1595.5,1604.5 C 1608.6,1605.43 1621.6,1607.1 1634.5,1609.5C 1634.83,1715.17 1634.5,1820.84 1633.5,1926.5C 1538.69,1895.8 1451.36,1909.97 1371.5,1969C 1313.25,2015.31 1278.58,2075.48 1267.5,2149.5C 1253.6,2139.93 1240.93,2128.93 1229.5,2116.5C 1213.24,2014.11 1243.24,1927.94 1319.5,1858C 1401.14,1791.16 1492.47,1773.66 1593.5,1805.5C 1593.56,1806.04 1593.89,1806.38 1594.5,1806.5C 1595.5,1739.17 1595.83,1671.84 1595.5,1604.5 Z"/></g>
</svg>
