<?xml version="1.0" encoding="UTF-8"?>
<!DOCTYPE svg PUBLIC "-//W3C//DTD SVG 1.1//EN" "http://www.w3.org/Graphics/SVG/1.1/DTD/svg11.dtd">
<svg xmlns="http://www.w3.org/2000/svg" version="1.1" width="512px" height="512px" style="shape-rendering:geometricPrecision; text-rendering:geometricPrecision; image-rendering:optimizeQuality; fill-rule:evenodd; clip-rule:evenodd" xmlns:xlink="http://www.w3.org/1999/xlink">
<g><path style="opacity:1" fill="#4f1431" d="M 111.5,-0.5 C 204.5,-0.5 297.5,-0.5 390.5,-0.5C 425.349,5.51103 446.849,25.8444 455,60.5C 458.01,92.3107 446.176,116.811 419.5,134C 409.764,139.183 399.431,142.35 388.5,143.5C 373.636,144.192 359.969,140.525 347.5,132.5C 346.833,131.833 346.167,131.167 345.5,130.5C 341.065,122.367 337.898,113.7 336,104.5C 332.934,99.3814 328.434,96.3814 322.5,95.5C 322.167,95.5 321.833,95.5 321.5,95.5C 320.987,87.6426 316.987,82.4759 309.5,80C 295.167,79.3333 280.833,79.3333 266.5,80C 261.667,82.1667 258.167,85.6667 256,90.5C 255.5,108.164 255.333,125.83 255.5,143.5C 168.265,140.933 98.0984,173.933 45,242.5C 19.1564,278.848 3.98978,319.181 -0.5,363.5C -0.5,279.5 -0.5,195.5 -0.5,111.5C 8.7041,57.4517 39.3708,21.6184 91.5,4C 98.2585,2.28494 104.925,0.784944 111.5,-0.5 Z"/></g>
<g><path style="opacity:0.996" fill="#2d0f1e" d="M 390.5,-0.5 C 393.5,-0.5 396.5,-0.5 399.5,-0.5C 453.548,8.7041 489.382,39.3708 507,91.5C 508.715,98.2585 510.215,104.925 511.5,111.5C 511.5,119.833 511.5,128.167 511.5,136.5C 504.243,194.812 472.576,232.979 416.5,251C 411.239,252.385 405.906,253.385 400.5,254C 378.141,253.55 356.474,257.05 335.5,264.5C 335.333,245.164 335.5,225.83 336,206.5C 357.115,219.123 379.949,224.623 404.5,223C 409.333,220.833 412.833,217.333 415,212.5C 415.667,198.5 415.667,184.5 415,170.5C 412.154,163.477 406.987,159.81 399.5,159.5C 398.984,151.986 395.317,146.653 388.5,143.5C 399.431,142.35 409.764,139.183 419.5,134C 446.176,116.811 458.01,92.3107 455,60.5C 446.849,25.8444 425.349,5.51103 390.5,-0.5 Z"/></g>
<g><path style="opacity:1" fill="#27f3ed" d="M 321.5,95.5 C 308.829,95.3334 296.162,95.5001 283.5,96C 277.667,97.8333 273.833,101.667 272,107.5C 271.667,186.167 271.333,264.833 271,343.5C 264.762,368.239 248.929,381.572 223.5,383.5C 206.296,382.904 192.963,375.57 183.5,361.5C 206.874,372.091 227.374,368.091 245,349.5C 251.083,341.921 254.416,333.255 255,323.5C 255.5,263.501 255.667,203.501 255.5,143.5C 255.333,125.83 255.5,108.164 256,90.5C 258.167,85.6667 261.667,82.1667 266.5,80C 280.833,79.3333 295.167,79.3333 309.5,80C 316.987,82.4759 320.987,87.6426 321.5,95.5 Z"/></g>
<g><path style="opacity:1" fill="#fefefe" d="M 321.5,95.5 C 321.833,95.5 322.167,95.5 322.5,95.5C 325.931,110.048 333.597,121.715 345.5,130.5C 346.167,131.167 346.833,131.833 347.5,132.5C 360.319,149.911 377.652,158.911 399.5,159.5C 399.667,171.838 399.5,184.171 399,196.5C 396.833,201.333 393.333,204.833 388.5,207C 363.91,208.644 341.077,203.144 320,190.5C 319.667,237.5 319.333,284.5 319,331.5C 312.86,375.631 289.36,406.465 248.5,424C 209.576,437.843 173.242,433.01 139.5,409.5C 138.167,407.833 136.833,406.167 135.5,404.5C 107.057,364.314 104.223,322.314 127,278.5C 149.486,243.578 181.653,225.245 223.5,223.5C 223.667,235.838 223.5,248.171 223,260.5C 220.833,265.333 217.333,268.833 212.5,271C 181.618,271.887 163.951,287.554 159.5,318C 159.647,335.801 166.981,349.635 181.5,359.5C 182.5,359.833 183.167,360.5 183.5,361.5C 192.963,375.57 206.296,382.904 223.5,383.5C 248.929,381.572 264.762,368.239 271,343.5C 271.333,264.833 271.667,186.167 272,107.5C 273.833,101.667 277.667,97.8333 283.5,96C 296.162,95.5001 308.829,95.3334 321.5,95.5 Z"/></g>
<g><path style="opacity:1" fill="#f82e55" d="M 322.5,95.5 C 328.434,96.3814 332.934,99.3814 336,104.5C 337.898,113.7 341.065,122.367 345.5,130.5C 333.597,121.715 325.931,110.048 322.5,95.5 Z"/></g>
<g><path style="opacity:1" fill="#31f0ea" d="M 347.5,132.5 C 359.969,140.525 373.636,144.192 388.5,143.5C 395.317,146.653 398.984,151.986 399.5,159.5C 377.652,158.911 360.319,149.911 347.5,132.5 Z"/></g>
<g><path style="opacity:1" fill="#000000" d="M 511.5,136.5 C 511.5,224.167 511.5,311.833 511.5,399.5C 502.296,453.548 471.629,489.382 419.5,507C 412.741,508.715 406.075,510.215 399.5,511.5C 389.5,511.5 379.5,511.5 369.5,511.5C 327.49,505.422 295.324,484.422 273,448.5C 271.214,445.264 269.714,441.93 268.5,438.5C 307.894,419.57 330.061,388.236 335,344.5C 335.5,317.835 335.667,291.169 335.5,264.5C 356.474,257.05 378.141,253.55 400.5,254C 405.906,253.385 411.239,252.385 416.5,251C 472.576,232.979 504.243,194.812 511.5,136.5 Z"/></g>
<g><path style="opacity:0.999" fill="#2d0f1e" d="M 255.5,143.5 C 255.667,203.501 255.5,263.501 255,323.5C 254.416,333.255 251.083,341.921 245,349.5C 227.374,368.091 206.874,372.091 183.5,361.5C 183.167,360.5 182.5,359.833 181.5,359.5C 168.717,328.244 177.383,305.077 207.5,290C 214.323,288.01 221.323,287.01 228.5,287C 233.333,284.833 236.833,281.333 239,276.5C 239.667,262.5 239.667,248.5 239,234.5C 236.154,227.477 230.987,223.81 223.5,223.5C 223.19,216.013 219.523,210.846 212.5,208C 174.235,206.747 143.068,220.914 119,250.5C 93.5784,285.04 88.5784,322.373 104,362.5C 110.96,379.275 121.46,393.275 135.5,404.5C 136.833,406.167 138.167,407.833 139.5,409.5C 168.841,441.002 204.841,452.835 247.5,445C 254.548,442.928 261.548,440.761 268.5,438.5C 269.714,441.93 271.214,445.264 273,448.5C 295.324,484.422 327.49,505.422 369.5,511.5C 283.5,511.5 197.5,511.5 111.5,511.5C 57.4517,502.296 21.6184,471.629 4,419.5C 2.28494,412.741 0.784944,406.075 -0.5,399.5C -0.5,387.5 -0.5,375.5 -0.5,363.5C 3.98978,319.181 19.1564,278.848 45,242.5C 98.0984,173.933 168.265,140.933 255.5,143.5 Z"/></g>
<g><path style="opacity:1" fill="#fc2c54" d="M 399.5,159.5 C 406.987,159.81 412.154,163.477 415,170.5C 415.667,184.5 415.667,198.5 415,212.5C 412.833,217.333 409.333,220.833 404.5,223C 379.949,224.623 357.115,219.123 336,206.5C 335.5,225.83 335.333,245.164 335.5,264.5C 335.667,291.169 335.5,317.835 335,344.5C 330.061,388.236 307.894,419.57 268.5,438.5C 261.548,440.761 254.548,442.928 247.5,445C 204.841,452.835 168.841,441.002 139.5,409.5C 173.242,433.01 209.576,437.843 248.5,424C 289.36,406.465 312.86,375.631 319,331.5C 319.333,284.5 319.667,237.5 320,190.5C 341.077,203.144 363.91,208.644 388.5,207C 393.333,204.833 396.833,201.333 399,196.5C 399.5,184.171 399.667,171.838 399.5,159.5 Z"/></g>
<g><path style="opacity:1" fill="#29f1eb" d="M 223.5,223.5 C 181.653,225.245 149.486,243.578 127,278.5C 104.223,322.314 107.057,364.314 135.5,404.5C 121.46,393.275 110.96,379.275 104,362.5C 88.5784,322.373 93.5784,285.04 119,250.5C 143.068,220.914 174.235,206.747 212.5,208C 219.523,210.846 223.19,216.013 223.5,223.5 Z"/></g>
<g><path style="opacity:1" fill="#fb2d55" d="M 223.5,223.5 C 230.987,223.81 236.154,227.477 239,234.5C 239.667,248.5 239.667,262.5 239,276.5C 236.833,281.333 233.333,284.833 228.5,287C 221.323,287.01 214.323,288.01 207.5,290C 177.383,305.077 168.717,328.244 181.5,359.5C 166.981,349.635 159.647,335.801 159.5,318C 163.951,287.554 181.618,271.887 212.5,271C 217.333,268.833 220.833,265.333 223,260.5C 223.5,248.171 223.667,235.838 223.5,223.5 Z"/></g>
</svg>
